<?xml version="1.0" encoding="utf-8"?>
<!-- Generator: Adobe Illustrator 24.1.0, SVG Export Plug-In . SVG Version: 6.00 Build 0)  -->
<svg version="1.1" id="Layer_1" xmlns="http://www.w3.org/2000/svg" xmlns:xlink="http://www.w3.org/1999/xlink" x="0px" y="0px"
	 viewBox="0 0 100 100" style="enable-background:new 0 0 100 100;" xml:space="preserve">
<g>
	<path d="M50,83.9c-18.7,0-33.9-15.2-33.9-33.9c0-18.7,15.2-33.9,33.9-33.9S83.9,31.3,83.9,50C83.9,68.7,68.7,83.9,50,83.9z
		 M50,17.9c-17.7,0-32.1,14.4-32.1,32.1c0,17.7,14.4,32.1,32.1,32.1c17.7,0,32.1-14.4,32.1-32.1C82.1,32.3,67.7,17.9,50,17.9z"/>
	<path d="M50,72.7c-12.5,0-22.7-10.2-22.7-22.7c0-12.5,10.2-22.7,22.7-22.7S72.7,37.5,72.7,50C72.7,62.5,62.5,72.7,50,72.7z M50,28
		c-12.1,0-22,9.9-22,22c0,12.1,9.9,22,22,22c12.1,0,22-9.9,22-22C72,37.9,62.1,28,50,28z"/>
	<polygon points="50,19.7 50.9,21.6 53,21.9 51.5,23.4 51.9,25.4 50,24.5 48.1,25.4 48.5,23.4 47,21.9 49.1,21.6 	"/>
	<polygon points="34.8,23.7 36.6,24.9 38.6,24.1 38,26.2 39.3,27.8 37.2,27.9 36.1,29.7 35.4,27.7 33.3,27.2 35,25.8 	"/>
	<polygon points="23.7,34.8 25.8,35 27.2,33.3 27.7,35.4 29.7,36.1 27.9,37.2 27.8,39.3 26.2,38 24.1,38.6 24.9,36.6 	"/>
	<polygon points="19.7,50 21.6,49.1 21.9,47 23.4,48.5 25.4,48.1 24.5,50 25.4,51.9 23.4,51.5 21.9,53 21.6,50.9 	"/>
	<polygon points="23.7,65.2 24.9,63.4 24.1,61.4 26.2,62 27.8,60.7 27.9,62.8 29.7,63.9 27.7,64.6 27.2,66.7 25.8,65 	"/>
	<polygon points="34.8,76.3 35,74.2 33.3,72.8 35.4,72.3 36.1,70.3 37.2,72.1 39.3,72.2 38,73.8 38.6,75.9 36.6,75.1 	"/>
	<polygon points="50,80.3 49.1,78.4 47,78.1 48.5,76.6 48.1,74.6 50,75.5 51.9,74.6 51.5,76.6 53,78.1 50.9,78.4 	"/>
	<polygon points="65.2,76.3 63.4,75.1 61.4,75.9 62,73.8 60.7,72.2 62.8,72.1 63.9,70.3 64.6,72.3 66.7,72.8 65,74.2 	"/>
	<polygon points="76.3,65.2 74.2,65 72.8,66.7 72.3,64.6 70.3,63.9 72.1,62.8 72.2,60.7 73.8,62 75.9,61.4 75.1,63.4 	"/>
	<polygon points="80.3,50 78.4,50.9 78.1,53 76.6,51.5 74.6,51.9 75.5,50 74.6,48.1 76.6,48.5 78.1,47 78.4,49.1 	"/>
	<polygon points="76.3,34.8 75.1,36.6 75.9,38.6 73.8,38 72.2,39.3 72.1,37.2 70.3,36.1 72.3,35.4 72.8,33.3 74.2,35 	"/>
	<polygon points="65.2,23.7 65,25.8 66.7,27.2 64.6,27.7 63.9,29.7 62.8,27.9 60.7,27.8 62,26.2 61.4,24.1 63.4,24.9 	"/>
	<g>
		<path d="M58,43.5c0,4.1-2.5,7.4-10.2,14.2h10.7L57.9,62H41.2V58c8.2-8,10.9-11,10.9-14c0-2-1.2-3.3-3.4-3.3
			c-1.9,0-3.2,0.8-4.5,2.5l-3.5-2.6c1.9-2.6,4.5-4.3,8.6-4.3C55,36.2,58,39.6,58,43.5z"/>
	</g>
</g>
</svg>
