<?xml version="1.0" encoding="UTF-8" standalone="no"?>
<!DOCTYPE svg PUBLIC "-//W3C//DTD SVG 1.1//EN" "http://www.w3.org/Graphics/SVG/1.1/DTD/svg11.dtd">
<svg width="100%" height="100%" viewBox="0 0 32 40" version="1.1" xmlns="http://www.w3.org/2000/svg" xmlns:xlink="http://www.w3.org/1999/xlink" xml:space="preserve" xmlns:serif="http://www.serif.com/" style="fill-rule:evenodd;clip-rule:evenodd;stroke-linejoin:round;stroke-miterlimit:2;">
    <g>
        <path d="M20,7.04C19.79,7.04 19.58,6.98 19.4,6.84C18.96,6.51 18.86,5.88 19.19,5.44C19.93,4.45 20.94,3.72 22.11,3.32C22.64,3.14 23.2,3.43 23.38,3.95C23.56,4.47 23.28,5.04 22.75,5.22C21.97,5.48 21.29,5.97 20.8,6.64C20.61,6.9 20.31,7.04 20,7.04Z" style="fill-rule:nonzero;"/>
        <path d="M12,7.04C11.69,7.04 11.39,6.9 11.2,6.64C10.71,5.97 10.03,5.49 9.25,5.24C8.72,5.06 8.44,4.5 8.61,3.98C8.78,3.46 9.34,3.17 9.87,3.34C11.05,3.72 12.06,4.45 12.81,5.45C13.14,5.89 13.05,6.52 12.6,6.85C12.42,6.97 12.21,7.04 12,7.04Z" style="fill-rule:nonzero;"/>
        <path d="M10,32.01C9.63,32.01 9.28,31.81 9.1,31.46C8.85,30.97 9.05,30.37 9.55,30.12C9.59,30.09 11,29.25 11,26.01C11,24.49 10.31,23.74 10.28,23.71C9.91,23.31 9.92,22.68 10.31,22.3C10.7,21.92 11.32,21.92 11.71,22.31C11.84,22.44 13,23.67 13,26.02C13,30.51 10.71,31.78 10.45,31.91C10.3,31.98 10.15,32.01 10,32.01Z" style="fill-rule:nonzero;"/>
        <path d="M21.99,32.01C21.84,32.01 21.69,31.98 21.55,31.91C21.29,31.77 19,30.5 19,26.01C19,23.66 20.16,22.44 20.29,22.3C20.68,21.91 21.31,21.91 21.7,22.3C22.09,22.69 22.09,23.31 21.71,23.7C21.66,23.75 20.99,24.51 20.99,26C20.99,29.24 22.4,30.08 22.46,30.12C22.93,30.39 23.11,30.99 22.86,31.47C22.69,31.81 22.35,32.01 21.99,32.01Z" style="fill-rule:nonzero;"/>
        <path d="M16,32C15.45,32 15,31.55 15,31L15,25C15,24.45 15.45,24 16,24C16.55,24 17,24.45 17,25L17,31C17,31.55 16.55,32 16,32Z" style="fill-rule:nonzero;"/>
        <path d="M4.01,18.89C3.93,18.89 3.85,18.88 3.76,18.86C1.55,18.29 0,16.3 0,14.01C0,12.38 0.78,10.89 2.08,9.97C2.03,9.64 2,9.33 2,9.01C2,5.7 4.69,3.01 8,3.01C8.39,3.01 8.78,3.05 9.19,3.14C10.89,1.17 13.39,0.01 16,0.01C18.61,0.01 21.11,1.17 22.81,3.14C23.22,3.05 23.61,3.01 24,3.01C27.31,3.01 30,5.7 30,9.01C30,9.33 29.97,9.64 29.92,9.97C31.22,10.9 32,12.39 32,14.01C32,16.29 30.46,18.28 28.26,18.85C27.73,18.99 27.18,18.67 27.04,18.13C26.9,17.6 27.22,17.05 27.76,16.91C29.08,16.57 30,15.37 30,14C30,12.86 29.36,11.84 28.33,11.33C27.89,11.11 27.68,10.61 27.82,10.14C27.94,9.75 28,9.37 28,9.01C28,6.8 26.21,5.01 24,5.01C23.62,5.01 23.21,5.08 22.76,5.23C22.35,5.37 21.9,5.22 21.64,4.87C20.3,3.05 18.25,2.01 16,2.01C13.75,2.01 11.7,3.05 10.36,4.87C10.1,5.22 9.65,5.37 9.24,5.23C8.79,5.08 8.38,5.01 8,5.01C5.79,5.01 4,6.8 4,9.01C4,9.37 4.06,9.75 4.18,10.15C4.32,10.62 4.11,11.12 3.67,11.34C2.64,11.85 2,12.87 2,14.01C2,15.38 2.93,16.58 4.26,16.92C4.8,17.06 5.12,17.6 4.98,18.14C4.87,18.59 4.46,18.89 4.01,18.89Z" style="fill-rule:nonzero;"/>
        <path d="M20,21.01C18.56,21.01 17.17,20.57 16,19.75C14.83,20.57 13.44,21.01 12,21.01C9.71,21.01 7.57,19.88 6.26,17.98C5.95,17.53 6.06,16.9 6.51,16.59C6.97,16.28 7.59,16.39 7.9,16.84C8.84,18.2 10.37,19.01 12,19.01C13.23,19.01 14.41,18.55 15.33,17.73C15.71,17.39 16.29,17.39 16.67,17.73C17.59,18.56 18.77,19.01 20,19.01C21.63,19.01 23.16,18.2 24.1,16.84C24.41,16.39 25.04,16.27 25.49,16.59C25.95,16.9 26.06,17.53 25.74,17.98C24.43,19.88 22.29,21.01 20,21.01Z" style="fill-rule:nonzero;"/>
    </g>
</svg>
