<?xml version="1.0" encoding="UTF-8" standalone="no"?>
<!DOCTYPE svg PUBLIC "-//W3C//DTD SVG 1.1//EN" "http://www.w3.org/Graphics/SVG/1.1/DTD/svg11.dtd">
<svg width="100%" height="100%" viewBox="0 0 170 170" version="1.1" xmlns="http://www.w3.org/2000/svg" xmlns:xlink="http://www.w3.org/1999/xlink" xml:space="preserve" xmlns:serif="http://www.serif.com/" style="fill-rule:evenodd;clip-rule:evenodd;stroke-linecap:round;stroke-linejoin:round;stroke-miterlimit:1.5;">
    <g id="Icon_Person" transform="matrix(0.917003,0,0,0.909483,84.8228,84.1272)">
        <g transform="matrix(1,0,0,1,-92.5,-92.5)">
            <g transform="matrix(1.36707,0,0,1.36707,-666.763,-588.052)">
                <path d="M527.557,554.682L527.557,510.982C527.557,507.724 528.851,504.6 531.154,502.297C533.458,499.993 536.582,498.699 539.839,498.699C549.09,498.699 561.715,498.699 570.962,498.699C574.215,498.699 577.336,499.992 579.636,502.292C581.937,504.593 583.229,507.713 583.229,510.966C583.229,527.444 583.229,554.682 583.229,554.682" style="fill:none;stroke:black;stroke-width:6.1px;"/>
            </g>
            <g transform="matrix(1.20505,0,0,1.1359,-576.095,-481.638)">
                <path d="M573.367,453.76C573.367,444.514 566.292,437.008 557.577,437.008L552.435,437.008C543.72,437.008 536.645,444.514 536.645,453.76L536.645,465.298C536.645,474.544 543.72,482.05 552.435,482.05L557.577,482.05C566.292,482.05 573.367,474.544 573.367,465.298L573.367,453.76Z" style="fill:none;stroke:black;stroke-width:7.12px;"/>
            </g>
        </g>
    </g>
    <g id="noun_Electricity" transform="matrix(0.563345,0,0,0.563345,85.3705,134.653)">
        <g transform="matrix(1,0,0,1,-50,-62.5)">
            <clipPath id="_clip1">
                <rect x="0" y="0" width="100" height="125"/>
            </clipPath>
            <g clip-path="url(#_clip1)">
                <g transform="matrix(1.50421,0,0,1.50421,-25.2102,-12.6354)">
                    <path d="M70.8,37.9C70.4,37.3 69.8,36.9 69.1,36.9L57.1,36.9L64.6,11C64.8,10.4 64.7,9.7 64.3,9.2C63.9,8.7 63.3,8.4 62.7,8.4L34.9,8.4C33.9,8.4 33,9.2 32.9,10.2L29,51.9C28.9,52.5 29.1,53 29.5,53.4C29.9,53.8 30.4,54.1 31,54.1L41.5,54.1L35.9,89.2C35.7,90.1 36.3,91.1 37.2,91.4C37.4,91.5 37.7,91.5 37.9,91.5C38.6,91.5 39.2,91.2 39.6,90.5L70.8,39.8C71.1,39.3 71.1,38.6 70.8,37.9ZM41.4,80L45.8,52.5C45.9,51.9 45.7,51.3 45.3,50.9C44.9,50.5 44.4,50.2 43.8,50.2L33.2,50.2L36.8,12.5L60,12.5L52.5,38.4C52.3,39 52.4,39.7 52.8,40.2C53.2,40.7 53.8,41 54.4,41L65.4,41L41.4,80Z" style="fill-rule:nonzero;"/>
                </g>
            </g>
        </g>
    </g>
</svg>
