<?xml version="1.0" encoding="UTF-8" standalone="no"?>
<!DOCTYPE svg PUBLIC "-//W3C//DTD SVG 1.1//EN" "http://www.w3.org/Graphics/SVG/1.1/DTD/svg11.dtd">
<svg width="100%" height="100%" viewBox="0 0 250 300" version="1.1" xmlns="http://www.w3.org/2000/svg" xmlns:xlink="http://www.w3.org/1999/xlink" xml:space="preserve" xmlns:serif="http://www.serif.com/" style="fill-rule:evenodd;clip-rule:evenodd;stroke-linejoin:round;stroke-miterlimit:2;">
    <g transform="matrix(2.50407,0,0,2.50407,-1001.83,-70.9117)">
        <path d="M437.414,84C437.391,83.713 437.367,83.427 437.341,83.142C437.27,82.354 437.195,81.646 437.119,81.031C437.074,80.667 437.04,80.418 437.022,80.297C436.841,79.087 437.777,78 439,78L461,78C462.223,78 463.159,79.087 462.978,80.297C462.96,80.418 462.926,80.667 462.881,81.031C462.805,81.646 462.73,82.354 462.659,83.142C462.633,83.427 462.609,83.713 462.586,84L472,84C473.301,84 474.256,85.223 473.94,86.485C473.928,86.534 473.9,86.662 473.86,86.869C473.789,87.236 473.717,87.677 473.649,88.188C473.173,91.786 473.173,96.339 473.978,101.703C474.524,105.341 475.813,108.986 477.625,112.5C478.494,114.186 479.425,115.729 480.355,117.092C480.581,117.423 480.794,117.727 480.993,118L482,118C483.105,118 484,118.895 484,120C484,121.105 483.105,122 482,122L418,122C416.895,122 416,121.105 416,120C416,118.895 416.895,118 418,118L419.007,118C419.206,117.727 419.419,117.423 419.645,117.092C420.575,115.729 421.506,114.186 422.375,112.5C424.187,108.986 425.476,105.341 426.022,101.703C426.827,96.339 426.827,91.786 426.351,88.188C426.283,87.677 426.211,87.236 426.14,86.869C426.1,86.662 426.072,86.534 426.06,86.485C425.744,85.223 426.699,84 428,84L437.414,84ZM476.167,118C475.449,116.864 474.742,115.638 474.069,114.333C472.071,110.457 470.639,106.409 470.022,102.297C469.184,96.712 469.161,91.9 469.641,88L462.363,88C462.242,91.921 462.409,95.912 462.978,99.703C463.519,103.308 464.643,107.196 466.178,111.163C466.964,113.194 467.807,115.114 468.649,116.86C468.847,117.271 469.036,117.652 469.212,118L476.167,118ZM423.833,118L430.788,118C430.964,117.652 431.153,117.271 431.351,116.86C432.193,115.114 433.036,113.194 433.822,111.163C435.357,107.196 436.481,103.308 437,100L437.022,99.703C437.591,95.912 437.758,91.921 437.637,88L430.359,88C430.839,91.9 430.816,96.712 429.978,102.297C429.361,106.409 427.929,110.457 425.931,114.333C425.258,115.638 424.551,116.864 423.833,118ZM441.325,82.784C441.838,88.485 441.838,94.56 441,100L440.978,100.297C440.388,104.227 439.186,108.386 437.552,112.607C436.814,114.514 436.029,116.326 435.239,118L464.761,118C463.971,116.326 463.186,114.514 462.448,112.607C460.814,108.386 459.612,104.227 459.022,100.297C458.162,94.56 458.162,88.485 458.675,82.784C458.699,82.514 458.724,82.252 458.749,82L441.251,82C441.276,82.252 441.301,82.514 441.325,82.784Z" style="fill-rule:nonzero;stroke:white;stroke-width:1.28px;"/>
    </g>
    <g transform="matrix(1,0,0,1,0.14734,0)">
        <path d="M145.704,76.788C150.642,70.837 158.818,66.823 168.153,66.823C183.613,66.823 195.709,77.761 195.709,90.571C195.709,103.381 183.613,114.318 168.153,114.318C163.413,114.318 158.961,113.286 155.092,111.494C154.327,111.772 153.538,112.033 152.728,112.275C149.091,113.363 145.574,113.893 142.545,113.945C140.314,115.94 137.342,117.166 134.073,117.166C127.076,117.166 121.476,111.574 121.476,104.789C121.476,100.51 123.699,96.71 127.098,94.486C127.074,94.133 127.063,93.777 127.063,93.419C127.063,84.248 134.665,76.716 144.13,76.716C144.661,76.716 145.186,76.74 145.704,76.788ZM148.058,82.703C151.622,76.471 159.284,72.157 168.153,72.157C180.418,72.157 190.376,80.408 190.376,90.571C190.376,100.734 180.418,108.985 168.153,108.985C163.403,108.985 158.999,107.747 155.384,105.639C154.084,106.207 152.681,106.723 151.201,107.165C147.116,108.386 143.217,108.82 140.225,108.534C138.939,110.515 136.663,111.833 134.073,111.833C130.064,111.833 126.809,108.677 126.809,104.789C126.809,101.156 129.65,98.162 133.293,97.784C132.715,96.44 132.396,94.965 132.396,93.419C132.396,87.144 137.654,82.05 144.13,82.05C145.508,82.05 146.83,82.28 148.058,82.703Z"/>
    </g>
</svg>
