<?xml version="1.0" encoding="UTF-8" standalone="no"?>
<!DOCTYPE svg PUBLIC "-//W3C//DTD SVG 1.1//EN" "http://www.w3.org/Graphics/SVG/1.1/DTD/svg11.dtd">
<svg width="100%" height="100%" viewBox="0 0 250 300" version="1.1" xmlns="http://www.w3.org/2000/svg" xmlns:xlink="http://www.w3.org/1999/xlink" xml:space="preserve" xmlns:serif="http://www.serif.com/" style="fill-rule:evenodd;clip-rule:evenodd;stroke-linejoin:round;stroke-miterlimit:2;">
    <g transform="matrix(0.912435,0,0,0.912435,17.9094,54.385)">
        <g transform="matrix(0.847378,0,0,0.863417,-432.054,-374.216)">
            <g>
                <g transform="matrix(1.05483,0,0,1.05483,27.0389,-53.2283)">
                    <path d="M508.23,685.948L508.23,597.142L525.108,516.425L543.125,515.843L556.887,589.486L614.573,545.635L614.573,591.814L669.856,543.859L669.856,685.948L508.23,685.948ZM537.709,522.439L530.477,522.673L514.769,597.794L514.769,679.53L663.317,679.53L663.317,558.097L618.903,596.622C616.976,598.294 614.23,598.702 611.885,597.665C609.541,596.627 608.033,594.338 608.033,591.814L608.033,558.724L560.892,594.56C559.087,595.931 556.684,596.28 554.552,595.48C552.42,594.68 550.867,592.847 550.455,590.643L537.709,522.439Z"/>
                </g>
                <g transform="matrix(1.00851,0,0,0.989777,468.284,373.017)">
                    <path d="M145.055,75.234C150.297,69.297 158.647,65.317 168.153,65.317C184.516,65.317 197.216,77.013 197.216,90.571C197.216,104.129 184.516,115.824 168.153,115.824C163.412,115.824 158.946,114.837 155.024,113.112C154.417,113.328 153.794,113.529 153.16,113.718C149.599,114.783 146.148,115.33 143.124,115.434C140.681,117.449 137.525,118.673 134.073,118.673C126.232,118.673 119.969,112.393 119.969,104.789C119.969,100.295 122.153,96.267 125.56,93.724L125.556,93.419C125.556,83.429 133.82,75.21 144.13,75.21C144.44,75.21 144.749,75.217 145.055,75.234ZM148.058,82.703C151.622,76.471 159.284,72.157 168.153,72.157C180.418,72.157 190.376,80.408 190.376,90.571C190.376,100.734 180.418,108.985 168.153,108.985C163.403,108.985 158.999,107.747 155.384,105.639C154.084,106.207 152.681,106.723 151.201,107.165C147.116,108.386 143.217,108.82 140.225,108.534C138.939,110.515 136.663,111.833 134.073,111.833C130.064,111.833 126.809,108.677 126.809,104.789C126.809,101.156 129.65,98.162 133.293,97.784C132.715,96.44 132.396,94.965 132.396,93.419C132.396,87.144 137.654,82.05 144.13,82.05C145.508,82.05 146.83,82.28 148.058,82.703Z"/>
                </g>
            </g>
        </g>
        <g transform="matrix(0.847378,0,0,0.863417,-426.989,-364.654)">
            <g transform="matrix(0.915254,0,0,0.753846,10.2162,156.994)">
                <path d="M652.598,592.393L615.971,592.393L615.971,632.745L652.598,632.745L652.598,592.393ZM623.508,601.373L623.508,623.764L645.061,623.764L645.061,601.373L623.508,601.373Z"/>
            </g>
            <g transform="matrix(0.915254,0,0,0.753846,61.8691,156.994)">
                <path d="M652.598,592.393L615.971,592.393L615.971,632.745L652.598,632.745L652.598,592.393ZM623.508,601.373L623.508,623.764L645.061,623.764L645.061,601.373L623.508,601.373Z"/>
            </g>
            <g transform="matrix(0.915254,0,0,0.753846,113.522,156.994)">
                <path d="M652.598,592.393L615.971,592.393L615.971,632.745L652.598,632.745L652.598,592.393ZM623.508,601.373L623.508,623.764L645.061,623.764L645.061,601.373L623.508,601.373Z"/>
            </g>
        </g>
    </g>
</svg>
